<svg width="250" height="53" viewBox="0 0 250 53" fill="none" xmlns="http://www.w3.org/2000/svg">
<g clip-path="url(#clip0_19_40)">
<path fill-rule="evenodd" clip-rule="evenodd" d="M131.471 41.4395C131.212 41.8095 131 42.3428 131 42.624C131 42.9063 130.83 43.2057 130.622 43.2893C130.32 43.4113 130.32 43.4466 130.622 43.4657C130.886 43.4829 131 44.128 131 45.6069C131 47.2873 131.094 47.7248 131.454 47.7248C131.813 47.7248 131.907 47.2903 131.907 45.628C131.907 43.6946 131.961 43.5212 132.588 43.4002L133.269 43.2692L132.588 43.2288C131.673 43.1734 131.61 41.6956 132.512 41.4597C133.287 41.2571 133.299 40.7672 132.529 40.7672C132.207 40.7672 131.73 41.0696 131.471 41.4395ZM144.309 41.2208C144.309 41.4708 144.446 41.6744 144.612 41.6744C144.778 41.6744 144.914 41.4708 144.914 41.2208C144.914 40.9718 144.778 40.7672 144.612 40.7672C144.446 40.7672 144.309 40.9718 144.309 41.2208ZM176.072 42.1613C176.072 43.373 176.003 43.5252 175.542 43.3276C173.537 42.4708 171.837 43.4103 171.837 45.375C171.837 47.3891 173.644 48.3972 175.487 47.4113C175.89 47.1956 176.072 47.1956 176.072 47.4113C176.072 47.5837 176.208 47.7248 176.374 47.7248C176.558 47.7248 176.676 46.3629 176.676 44.246C176.676 42.128 176.558 40.7672 176.374 40.7672C176.208 40.7672 176.072 41.3942 176.072 42.1613ZM181.82 44.246C181.82 47.619 181.941 48.0877 182.632 47.3962C182.869 47.1593 183.018 47.1593 183.164 47.3962C183.993 48.7359 186.962 47.1038 186.962 45.3085C186.962 43.6845 184.212 42.0081 183.483 43.1875C182.979 44.002 182.424 43.4476 182.424 42.128C182.424 41.3801 182.288 40.7672 182.122 40.7672C181.938 40.7672 181.82 42.128 181.82 44.246ZM216.908 42.1613C216.908 43.373 216.84 43.5252 216.379 43.3276C214.375 42.4708 212.673 43.4103 212.673 45.375C212.673 47.3891 214.481 48.3972 216.324 47.4113C216.727 47.1956 216.908 47.1956 216.908 47.4113C216.908 47.5837 217.113 47.7248 217.362 47.7248C217.739 47.7248 217.817 47.1361 217.817 44.246C217.817 41.3559 217.739 40.7672 217.362 40.7672C217.024 40.7672 216.908 41.124 216.908 42.1613ZM106.196 41.5111C106.196 41.8418 106.502 41.9768 107.254 41.9768H108.312V44.8508C108.312 46.5655 108.434 47.7248 108.615 47.7248C108.795 47.7248 108.918 46.5716 108.918 44.869V42.0141L109.983 41.9204C112.049 41.7379 111.202 41.2218 108.691 41.1331C106.607 41.0595 106.196 41.122 106.196 41.5111ZM147.637 42.2893C147.637 42.627 147.429 42.9839 147.174 43.0817C146.765 43.2379 146.764 43.2984 147.163 43.6008C147.454 43.8216 147.645 44.5887 147.702 45.7581L147.788 47.5736L148.802 47.6704C149.467 47.7339 149.748 47.6553 149.617 47.4436C149.507 47.2651 149.152 47.12 148.83 47.12C147.733 47.12 147.974 43.503 149.074 43.4486C149.811 43.4123 149.827 43.3922 149.209 43.2742C148.826 43.2006 148.387 42.8105 148.234 42.4083C147.893 41.5141 147.637 41.4627 147.637 42.2893ZM112.383 43.627C110.86 45.1502 111.885 47.7248 114.015 47.7248C115.739 47.7248 116.48 47.0434 116.48 45.4607C116.48 43.1341 113.99 42.0192 112.383 43.627ZM121.018 45.3045C121.018 46.7168 121.144 47.7248 121.321 47.7248C121.497 47.7248 121.623 46.7168 121.623 45.3045C121.623 43.8932 121.497 42.8851 121.321 42.8851C121.144 42.8851 121.018 43.8932 121.018 45.3045ZM124.042 45.3045C124.042 48.0575 124.502 48.5736 124.711 46.0555C125.013 42.4184 127.715 42.4526 128.247 46.0998L128.506 47.876L128.543 45.8811C128.594 43.1643 127.409 42.1422 125.511 43.2631C124.999 43.5656 124.844 43.5656 124.734 43.2631C124.356 42.2178 124.042 43.1422 124.042 45.3045ZM134.63 45.3045C134.63 46.7168 134.756 47.7248 134.932 47.7248C135.109 47.7248 135.235 46.7168 135.235 45.3045C135.235 43.8932 135.109 42.8851 134.932 42.8851C134.756 42.8851 134.63 43.8932 134.63 45.3045ZM137.353 45.3045C137.353 47.2541 137.441 47.7248 137.806 47.7248C138.153 47.7248 138.26 47.3438 138.26 46.1079C138.26 44.3649 138.829 43.4899 139.963 43.4899C140.948 43.4899 141.285 44.123 141.285 45.9698C141.285 47.3276 141.387 47.7248 141.739 47.7248C142.273 47.7248 142.381 45.2349 141.9 43.9718C141.513 42.9526 140.23 42.6331 139.109 43.2772C138.388 43.6905 138.26 43.6976 138.26 43.3246C138.26 43.0827 138.055 42.8851 137.806 42.8851C137.441 42.8851 137.353 43.3549 137.353 45.3045ZM144.309 45.3045C144.309 46.7168 144.435 47.7248 144.612 47.7248C144.788 47.7248 144.914 46.7168 144.914 45.3045C144.914 43.8932 144.788 42.8851 144.612 42.8851C144.435 42.8851 144.309 43.8932 144.309 45.3045ZM150.929 43.5393C151.079 43.9284 151.563 45.0595 152.004 46.0545C152.924 48.126 152.696 49.2369 151.35 49.2369C150.945 49.2369 150.709 49.37 150.814 49.5393C151.107 50.0151 152.034 49.8942 152.554 49.3125C153.193 48.5988 155.512 42.8851 155.163 42.8851C154.894 42.8851 154.421 43.8226 153.668 45.8508C153.22 47.0585 152.935 46.8488 152.055 44.6643C151.706 43.7934 151.247 43.0252 151.038 42.9567C150.756 42.8649 150.728 43.0161 150.929 43.5393ZM159.911 43.2843C159.432 43.6341 159.546 43.6805 160.837 43.6623C162.14 43.6432 162.32 43.7188 162.405 44.3216C162.49 44.9204 162.369 45.002 161.402 45.002C159.829 45.002 159.132 45.4627 159.132 46.5051C159.132 47.5444 159.543 47.7218 161.81 47.6623L163.43 47.62L163.306 45.6694C163.143 43.0968 161.626 42.0303 159.911 43.2843ZM165.485 45.3045C165.485 46.7168 165.611 47.7248 165.787 47.7248C165.954 47.7248 166.09 47.0746 166.09 46.2792C166.09 44.5917 166.735 43.4899 167.724 43.4899C168.838 43.4899 169.417 44.4022 169.417 46.1603C169.417 47.0212 169.553 47.7248 169.72 47.7248C170.298 47.7248 170.08 43.9385 169.469 43.3851C168.824 42.8014 167.83 42.7409 166.916 43.2309C166.431 43.4899 166.241 43.4899 166.154 43.2309C165.806 42.1875 165.485 43.1855 165.485 45.3045ZM189.055 43.7692C187.427 45.3972 188.407 47.7248 190.721 47.7248C191.462 47.7248 192.161 47.5736 192.275 47.3901C192.419 47.1563 192.192 47.119 191.524 47.2651C190.454 47.501 189.079 46.8196 189.079 46.0545C189.079 45.7057 189.513 45.6069 191.045 45.6069C193.162 45.6069 193.39 45.3801 192.663 43.999C191.908 42.5645 190.359 42.4658 189.055 43.7692ZM194.075 43.502C194.182 43.8418 194.657 44.9647 195.131 45.998C196.086 48.0817 195.928 48.8851 194.491 49.2651C193.887 49.4244 193.851 49.4919 194.273 49.6724C195.432 50.1684 195.967 49.4819 197.525 45.494C198.57 42.8236 198.553 42.8851 198.195 42.8851C198.05 42.8851 197.636 43.6966 197.274 44.6895C196.489 46.8438 196.139 47.1411 195.728 46.003C194.833 43.5242 193.387 41.3387 194.075 43.502ZM200.134 43.6542C198.596 45.1936 199.594 47.7248 201.739 47.7248C203.463 47.7248 204.204 47.0434 204.204 45.4607C204.204 43.118 201.757 42.0323 200.134 43.6542ZM206.322 45.3045C206.322 46.7168 206.448 47.7248 206.624 47.7248C206.79 47.7248 206.926 47.0746 206.926 46.2792C206.926 44.5917 207.572 43.4899 208.56 43.4899C209.674 43.4899 210.254 44.4022 210.254 46.1603C210.254 47.0212 210.39 47.7248 210.556 47.7248C211.054 47.7248 210.916 44.3115 210.388 43.5575C209.831 42.7611 208.577 42.6704 207.599 43.3559C206.99 43.7823 206.926 43.7823 206.926 43.3559C206.926 43.0968 206.79 42.8851 206.624 42.8851C206.448 42.8851 206.322 43.8932 206.322 45.3045ZM115.29 43.8024C116.159 44.2682 116.103 46.3206 115.203 46.9516C114.28 47.5978 113.59 47.5414 112.862 46.7601C111.24 45.0192 113.17 42.6684 115.29 43.8024ZM175.593 44.0666C176.993 45.6139 175.217 48.1079 173.425 47.1099C171.759 46.1825 172.377 43.4899 174.257 43.4899C174.705 43.4899 175.305 43.749 175.593 44.0666ZM185.741 44.0746C186.305 45.1301 186.117 46.4597 185.33 46.9748C183.43 48.2198 181.662 45.742 183.113 43.868C183.587 43.2561 185.378 43.3972 185.741 44.0746ZM192.094 44.0746C192.572 44.9688 192.524 45.002 190.743 45.002C189.58 45.002 189.079 44.8841 189.079 44.6089C189.079 43.4416 191.523 43.0091 192.094 44.0746ZM203.236 43.8528C203.875 44.492 203.682 46.4224 202.926 46.9516C201.076 48.248 199.117 46.0504 200.44 44.1623C200.965 43.4123 202.613 43.2299 203.236 43.8528ZM216.356 43.9899C217.498 45.0242 216.617 47.4224 215.094 47.4224C214.237 47.4224 213.278 46.3569 213.278 45.4043C213.278 43.743 215.138 42.8891 216.356 43.9899ZM162.46 46.2016C162.46 46.9567 161.412 47.5282 160.465 47.2913C159.773 47.1169 159.474 46.2742 159.939 45.8085C160.456 45.2914 162.46 45.6039 162.46 46.2016Z" fill="#D1C3A4"/>
<path fill-rule="evenodd" clip-rule="evenodd" d="M227.798 4.96574C227.798 5.0736 228.275 5.74295 228.857 6.45364C229.44 7.16432 229.916 7.8478 229.916 7.97179C229.916 8.09679 230.119 8.41433 230.368 8.67744C231.356 9.72481 232.336 11.0766 232.336 11.3932C232.336 11.5776 232.454 11.7278 232.597 11.7278C232.741 11.7278 233.248 12.3065 233.724 13.0131C234.2 13.7208 235.171 15.0716 235.882 16.0151C237.246 17.8256 237.373 18.1835 236.856 18.7732C236.54 19.1341 233.69 22.9919 232.697 24.4032C232.414 24.8024 231.947 25.3811 231.655 25.6885C231.364 25.996 231.126 26.377 231.126 26.5353C231.126 26.6936 230.956 26.9315 230.747 27.0645C230.538 27.1976 229.961 27.9184 229.462 28.6674C228.964 29.4163 228.481 30.0968 228.39 30.1795C228.298 30.2631 227.914 30.7732 227.536 31.3145L226.85 32.2974H227.586C228.113 32.2974 228.569 31.9325 229.194 31.0121C229.673 30.3045 230.136 29.6583 230.223 29.5746C230.31 29.4919 231.534 27.8579 232.944 25.9446C234.354 24.0313 235.644 22.3004 235.813 22.0988C236.443 21.3377 236.742 20.9305 237.261 20.122C237.835 19.2278 238.689 19.002 238.689 19.744C238.689 19.993 238.805 20.1976 238.95 20.1976C239.094 20.1976 239.604 20.7762 240.084 21.4829C240.565 22.1905 241.06 22.9052 241.186 23.0716C241.314 23.2379 242.231 24.4627 243.226 25.7934C244.221 27.125 245.144 28.3498 245.278 28.5161C245.411 28.6825 246.098 29.6018 246.802 30.5585C247.771 31.872 248.27 32.2974 248.844 32.2974C249.413 32.2974 249.525 32.2036 249.292 31.9194C248.071 30.4295 247.461 29.6169 247.461 29.4809C247.461 29.3952 247.195 29.0061 246.87 28.618C246.275 27.9053 241.648 21.6976 240.805 20.4809C240.556 20.12 240.114 19.5131 239.823 19.1321C239.173 18.2813 239.136 17.2137 239.747 16.9798C239.997 16.8841 240.201 16.6694 240.201 16.503C240.201 16.3367 240.507 15.8266 240.881 15.368C241.256 14.9093 241.766 14.2268 242.016 13.8498C242.265 13.4738 242.607 13.0131 242.774 12.8246C243.155 12.3992 246.544 7.79337 247.158 6.86796C247.407 6.49095 247.85 5.93347 248.141 5.62803C248.834 4.90222 248.81 4.76715 247.99 4.78631C247.488 4.7984 246.799 5.51212 245.365 7.50909C244.295 8.997 243.308 10.2157 243.172 10.2157C243.035 10.2157 242.923 10.3942 242.923 10.6119C242.923 10.8307 242.651 11.3004 242.319 11.6583C241.986 12.0151 241.713 12.4194 241.713 12.5555C241.713 12.6915 241.475 13.0252 241.183 13.2964C240.892 13.5676 240.197 14.4153 239.636 15.1784C238.741 16.3992 237.478 17.0655 237.478 16.3176C237.478 16.118 236.15 14.2601 234.522 12.1815C234.391 12.0151 233.098 10.2792 231.648 8.32461C229.317 5.18045 227.798 3.85686 227.798 4.96574ZM211.099 9.38308L211.01 11.5766L209.198 11.7278C206.476 11.9547 206.406 12.871 209.1 12.998L211.01 13.0887L211.161 21.2561C211.244 25.748 211.434 29.628 211.585 29.877C212.688 31.7188 214.37 32.5998 216.784 32.5998C218.295 32.5998 220.538 31.8579 220.538 31.3589C220.538 30.3952 220.159 30.1603 219.405 30.6553C218.36 31.3397 215.466 31.3448 214.426 30.6643C212.785 29.5887 212.655 28.8105 212.744 20.5948L212.825 13.0887L216.077 13.003C219.059 12.9244 219.329 12.869 219.329 12.3327C219.329 11.7964 219.059 11.7409 216.077 11.6623L212.825 11.5766L212.736 9.38308C212.651 7.29134 212.614 7.19053 211.917 7.19053C211.222 7.19053 211.183 7.29134 211.099 9.38308ZM188.339 11.9083C178.936 14.9083 178.909 28.9446 188.301 32.0988C191.704 33.2419 196.348 32.5182 198.85 30.4537C200.506 29.0877 199.687 27.8579 197.985 29.1553C193.602 32.498 186.44 31.246 184.266 26.7571C183.206 24.5655 183.14 24.618 188.096 23.6936C190.55 23.2349 192.966 22.749 193.465 22.6129C193.965 22.4768 194.917 22.2813 195.583 22.1774C196.248 22.0736 197.792 21.7732 199.014 21.5101L201.237 21.0313L201.028 19.6411C200.175 13.9546 193.904 10.1331 188.339 11.9083ZM193.752 13.4002C195.742 13.9788 197.65 15.5857 198.62 17.499C199.775 19.7792 199.668 20.0978 197.625 20.4809C196.668 20.6613 194.864 21.0161 193.617 21.2702C189.347 22.1391 183.644 23.2228 183.337 23.2228C182.797 23.2228 183.006 20.2823 183.673 18.4698C185.213 14.2903 189.463 12.1532 193.752 13.4002Z" fill="url(#paint0_linear_19_40)"/>
<path d="M158.527 32.2973C157.93 32.2973 157.922 32.0957 157.922 17.4748C157.922 2.85481 157.93 2.6532 158.527 2.6532C159.12 2.6532 159.132 2.85481 159.132 13.0988C159.132 26.0584 158.562 25.4123 164.879 19.6018C173.003 12.13 174.559 10.9617 174.559 12.3326C174.559 12.499 174.453 12.635 174.323 12.635C173.585 12.635 166.286 20.1129 166.625 20.5211C168.814 23.1623 169.35 23.8296 169.871 24.5595C170.204 25.0252 170.615 25.5625 170.785 25.752C173.564 28.8397 175.798 32.1542 175.165 32.248C174.344 32.3699 174.118 32.1401 170.331 27.3064C168.766 25.3094 167.309 23.4717 167.095 23.2228C166.88 22.9728 166.379 22.3669 165.982 21.877L165.261 20.9848L164.389 21.7399C163.91 22.1552 163.05 22.8961 162.478 23.3881C161.906 23.879 160.919 24.8024 160.285 25.4405L159.132 26.5998V29.4486C159.132 32.0957 159.089 32.2973 158.527 32.2973Z" fill="url(#paint1_linear_19_40)"/>
<path d="M73.5262 5.90218V5.18545V4.46772L79.5 4.47376C89.62 4.48485 92.873 5.91126 94.5635 11.0786C96.001 15.4728 93.378 21.2006 89.4829 22.1734C88.2853 22.4717 88.4284 23.1159 90.2389 25.5766C95.6422 32.9203 95.4617 32.5998 94.1926 32.5998C93.2087 32.5998 93.0393 32.4042 89.1049 26.7348L86.6845 23.2479L81.1966 23.2348C74.7117 23.2197 75.3407 22.6663 75.3407 28.3901V32.5998H74.4335H73.5262V27.1552V21.7096H79.6361C90.0817 21.7096 92.8861 20.003 92.8861 13.6461C92.8861 7.86187 90.2037 6.24694 80.2561 6.0413L73.5262 5.90218Z" fill="url(#paint2_linear_19_40)"/>
<path d="M141.191 32.5917C129.479 32.6481 126.573 15.2661 137.77 12.135C140.113 11.4808 144.824 11.7923 145.968 12.6784C147.542 13.8961 148.544 14.883 148.544 15.2127C148.544 15.9627 147.787 15.8639 146.724 14.9738C143.041 11.8911 137.587 12.384 134.26 16.1008C133.806 16.6068 133.431 17.1572 133.426 17.3236C133.42 17.4899 133.189 18.0342 132.91 18.5342C131.5 21.0655 132.611 26.6431 134.97 28.879C138.188 31.9284 143.932 31.9929 146.914 29.0131C147.829 28.0998 147.87 28.0887 148.37 28.6421C149.546 29.9415 144.76 32.5736 141.191 32.5917Z" fill="url(#paint3_linear_19_40)"/>
<path fill-rule="evenodd" clip-rule="evenodd" d="M110.075 11.9788C105.055 13.4546 102.466 17.6613 102.959 23.5383C103.869 34.3982 119.349 36.0272 122.956 25.6421C125.774 17.5292 118.27 9.56952 110.075 11.9788ZM121.428 24.6875C122.804 19.9546 120.266 14.8629 115.837 13.4667C109.849 11.5796 104.575 15.5796 104.571 22.0121C104.564 32.6391 118.475 34.8467 121.428 24.6875Z" fill="url(#paint4_linear_19_40)"/>
<path d="M16.5373 1.53228C16.9425 1.23288 17.6915 0.763127 18.2016 0.486917C19.4113 -0.168325 19.4405 -0.101794 18.8145 1.88913C18.1532 3.99196 18.1371 4.00002 16.8538 2.94256L15.8004 2.07462L16.5373 1.53228Z" fill="#D8CDB1"/>
<path d="M6.46674 12.1361C8.10989 11.0081 9.40424 9.69357 11.87 6.65224C15.4788 2.20163 15.252 2.35788 16.5333 3.43651C17.7813 4.48691 17.877 4.25808 14.3236 8.72885C11.4446 12.3508 10.5554 13.8659 9.29839 17.2883C9.00807 18.0786 8.92944 18.118 8.45666 17.7127C7.54436 16.9295 6.92339 16.8498 6.72077 17.4909C6.49396 18.2026 6.02621 18.2379 5.12903 17.6089C4.46472 17.1442 4.20162 16.2651 4.72682 16.2651C5.30948 16.2651 5.29839 15.3569 4.70766 14.6049C4.36492 14.1694 4.13509 13.7702 4.19557 13.7167C4.25606 13.6633 5.27823 12.9516 6.46674 12.1361Z" fill="#D8CDB1"/>
<path d="M13.623 39.9617C8.80948 28.4234 15.7722 14.9446 27.9002 12.3206C44.8478 8.65325 58.2268 27.5101 49.3589 42.5645C42.5151 54.1805 25.5746 55.7299 16.9869 45.5242L16.1774 44.5625L18.5605 44.1956C28.8387 42.6099 38.8357 36.9637 45.7248 28.8508C50.1391 23.6542 49.4667 22.2541 44.8206 26.9678C36.9184 34.9869 26.3458 40.2853 16.378 41.2228L14.2329 41.4244L13.623 39.9617Z" fill="#D8CDB1"/>
<path d="M1.73287 19.2903C1.93045 18.5414 2.30545 17.6905 2.56553 17.3992C3.22883 16.6563 3.52621 16.7379 4.98589 18.0585C6.54638 19.4698 6.58266 19.9294 5.21472 20.9728C1.05645 24.1442 1.00102 34.0877 5.11795 38.3196C7.87803 41.1563 10.0403 41.995 14.6179 41.999C23.7732 42.0091 35.3921 36.9889 43.2016 29.6492C45.9788 27.0393 46.0101 27.503 43.248 30.3508C33.0363 40.8801 16.5292 46.3236 7.60887 42.1038C2.71774 39.7903 -0.383057 34.6129 -0.383057 28.7621C-0.383057 26.3418 0.513107 21.7036 1.125 20.9536C1.26109 20.7873 1.53428 20.0383 1.73287 19.2903Z" fill="#D8CDB1"/>
</g>
<defs>
<linearGradient id="paint0_linear_19_40" x1="73.5887" y1="18.1452" x2="248.992" y2="18.1452" gradientUnits="userSpaceOnUse">
<stop stop-color="#D2CEB5"/>
<stop offset="1" stop-color="#967542"/>
</linearGradient>
<linearGradient id="paint1_linear_19_40" x1="73.5887" y1="18.1452" x2="248.992" y2="18.1452" gradientUnits="userSpaceOnUse">
<stop stop-color="#D2CEB5"/>
<stop offset="1" stop-color="#967542"/>
</linearGradient>
<linearGradient id="paint2_linear_19_40" x1="73.5887" y1="18.1452" x2="248.992" y2="18.1452" gradientUnits="userSpaceOnUse">
<stop stop-color="#D2CEB5"/>
<stop offset="1" stop-color="#967542"/>
</linearGradient>
<linearGradient id="paint3_linear_19_40" x1="73.5887" y1="18.1452" x2="248.992" y2="18.1452" gradientUnits="userSpaceOnUse">
<stop stop-color="#D2CEB5"/>
<stop offset="1" stop-color="#967542"/>
</linearGradient>
<linearGradient id="paint4_linear_19_40" x1="73.5887" y1="18.1452" x2="248.992" y2="18.1452" gradientUnits="userSpaceOnUse">
<stop stop-color="#D2CEB5"/>
<stop offset="1" stop-color="#967542"/>
</linearGradient>
<clipPath id="clip0_19_40">
<rect width="250" height="52.4194" fill="white"/>
</clipPath>
</defs>
</svg>
